/* XPM */
static char * p001_xpm[] = {
"38 38 81 1",
" 	c None",
".	c #FFFFFF",
"+	c #424242",
"@	c #414141",
"#	c #373737",
"$	c #2B2B2B",
"%	c #2D2D2D",
"&	c #272727",
"*	c #1D1D1D",
"=	c #1C1C1C",
"-	c #212121",
";	c #191919",
">	c #181818",
",	c #FEFEFE",
"'	c #848484",
")	c #1F1F1F",
"!	c #1A1A1A",
"~	c #F8F8F8",
"{	c #131313",
"]	c #F3F3F3",
"^	c #161616",
"/	c #121212",
"(	c #101010",
"_	c #DFDFDF",
":	c #0F0F0F",
"<	c #151515",
"[	c #0E0E0E",
"}	c #0C0C0C",
"|	c #FAFAFA",
"1	c #0B0B0B",
"2	c #FDFDFD",
"3	c #F4F4F4",
"4	c #E9E9E9",
"5	c #080808",
"6	c #070707",
"7	c #F7F7F7",
"8	c #F1F1F1",
"9	c #EDEDED",
"0	c #090909",
"a	c #050505",
"b	c #F6F6F6",
"c	c #EFEFEF",
"d	c #E7E7E7",
"e	c #040404",
"f	c #FBFBFB",
"g	c #F0F0F0",
"h	c #E6E6E6",
"i	c #ECECEC",
"j	c #313131",
"k	c #232323",
"l	c #020202",
"m	c #010101",
"n	c #000000",
"o	c #303030",
"p	c #262626",
"q	c #EAEAEA",
"r	c #E5E5E5",
"s	c #E3E3E3",
"t	c #D9D9D9",
"u	c #D8D8D8",
"v	c #CDCDCD",
"w	c #E0E0E0",
"x	c #DEDEDE",
"y	c #D2D2D2",
"z	c #C8C8C8",
"A	c #E2E2E2",
"B	c #CECECE",
"C	c #D4D4D4",
"D	c #CBCBCB",
"E	c #DCDCDC",
"F	c #D1D1D1",
"G	c #D5D5D5",
"H	c #B7B7B7",
"I	c #C5C5C5",
"J	c #DBDBDB",
"K	c #D6D6D6",
"L	c #C4C4C4",
"M	c #C3C3C3",
"N	c #C0C0C0",
"O	c #CFCFCF",
"P	c #C7C7C7",
"               ..+@#$..               ",
"            .....%&*=.....            ",
"          .......-;>=.....,'          ",
"        .........)>>!.......~'        ",
"       ..........)!>{.........]       ",
"      ...........=^/(.........._      ",
"     ............>(::..........._     ",
"    .............<:[[............_    ",
"   ..............<:}}............._   ",
"   ..............<[}}.............|   ",
"  .............../}11............234  ",
"  ...............(}56...........,789  ",
" ................:06a..........2~b]cd ",
" ................[5aa.........,|7b389 ",
" ................}6ea........,f~7b3g4 ",
".................}6ee.......,f~~77b8h_",
".................}6ee......,ff~~7b8ii4",
"jk!;>^<//(([[}1115lmmmnnnnnnnnnnnnnnnn",
"o!(:/:155566aeeeemnnnnnnnnnnnnnnnnnnnn",
"p(1[[06aaaelmnnnnnnnnnnnnnnnnnnnnnnnnn",
"![::0666aaemnnnnnnnnnnnnnnnnnnnnnnnnnn",
"............,,f|fnnnnggcc99iqq4drs_tuv",
"............,ff||nnnngcc99iiqqdhswxtyz",
" .........,2f||||nnnncc99iq444drAwxtB ",
" .........,f|||||nnnnc99iq4444hsAxtCD ",
" .......,2f~~~|||nnnn99iq444dhsA_EuFz ",
"  .2....,|~~~~~||nnnniiq444dhssAxtGD  ",
"  H,..,,|777~~~~7nnnnqq444dhsAA_EuFI  ",
"   .2.2~77777~~73nnnn4dd4dhsAA_JuGD   ",
"   Hf|b33b7777b3]nnnnddhhrAAA_JKGBL   ",
"    .gg833b77b8ggnnnnhrrsAAA_JKGBL    ",
"     24c8333]ggcgnnnnrsAw__xtKGBL     ",
"      24c8389i99cnnnnAw_xEJuuGBL      ",
"       2499q44qiinnnnxxEJtKGyvM       ",
"        2sAwshd4dnnnntutKCFvIN        ",
"          FKEwAs_nnnnGCyBDIN          ",
"            OKKGJnnnnyBPMN            ",
"               ICnnnnNN               "};
