/* XPM */
static char * p002_xpm[] = {
"38 38 49 1",
" 	c None",
".	c #FFFFFF",
"+	c #FEFEFE",
"@	c #848484",
"#	c #F8F8F8",
"$	c #F3F3F3",
"%	c #DFDFDF",
"&	c #FAFAFA",
"*	c #FDFDFD",
"=	c #F4F4F4",
"-	c #E9E9E9",
";	c #F7F7F7",
">	c #F1F1F1",
",	c #EDEDED",
"'	c #F6F6F6",
")	c #EFEFEF",
"!	c #E7E7E7",
"~	c #FBFBFB",
"{	c #F0F0F0",
"]	c #E6E6E6",
"^	c #ECECEC",
"/	c #E5E5E5",
"(	c #D9D9D9",
"_	c #CFCFCF",
":	c #EAEAEA",
"<	c #DCDCDC",
"[	c #CECECE",
"}	c #E3E3E3",
"|	c #D8D8D8",
"1	c #CDCDCD",
"2	c #E0E0E0",
"3	c #DEDEDE",
"4	c #D2D2D2",
"5	c #C8C8C8",
"6	c #E2E2E2",
"7	c #D4D4D4",
"8	c #CBCBCB",
"9	c #D1D1D1",
"0	c #D5D5D5",
"a	c #B7B7B7",
"b	c #C5C5C5",
"c	c #DBDBDB",
"d	c #D6D6D6",
"e	c #C4C4C4",
"f	c #C3C3C3",
"g	c #C0C0C0",
"h	c #C7C7C7",
"i	c #BEBEBE",
"j	c #BDBDBD",
"               ........               ",
"            ..............            ",
"          ................+@          ",
"        ....................#@        ",
"       .......................$       ",
"      .........................%      ",
"     ...........................%     ",
"    .............................%    ",
"   ...............................%   ",
"   ...............................&   ",
"  ...............................*=-  ",
"  ..............................+;>,  ",
" ..............................*#'$)! ",
" .............................+&;'=>, ",
" ............................+~#;'={- ",
"............................+~##;;'>]%",
"...........................+~~##;'>^^-",
"..........................+~&&###'{{>/",
".........................+*~&&&#'>>=)(",
"....................+~~~~&##;;;={,{)/_",
"................+++*;===$>>)),,:-!]/<[",
"............++~&~~~#${{)),,^::-!/}%(|1",
"............+~~&&~~#${)),,^^::!]}23(45",
" .........+*~&&&&&~#$)),,^:---!/623([ ",
" .........+~&&&&&&&;>),,^:----]}63(78 ",
" .......+*~###&&&&#'{,,^:---!]}6%<|95 ",
"  .*....+&#####&&#;$)^^:---!]}}63(08  ",
"  a+..++&;;;####;==$,::---!]}66%<|9b  ",
"   .*.*#;;;;;##;=$$>:-!!-!]}66%c|08   ",
"   a~&'==';;;;'=$$${:!!]]/666%cd0[e   ",
"    .{{>==';;'>{{>>{:]//}666%cd0[e    ",
"     *-)>===${{){{{)!/}62%%3(d0[e     ",
"      *-)>=>,^,,)),-}62%3<c||0[e      ",
"       *-,,:--:^^^!/233<c(d041f       ",
"        *}62}]!-!/!!2(|(d791bg        ",
"          9d<26}%}!]3074[8bg          ",
"            _dd0c}6|44[hfg            ",
"               b775ijgg               "};
