/* XPM */
static char * p004_xpm[] = {
"38 38 48 1",
" 	c None",
".	c #3F3F3F",
"+	c #424242",
"@	c #414141",
"#	c #373737",
"$	c #2B2B2B",
"%	c #3A3A3A",
"&	c #3C3C3C",
"*	c #383838",
"=	c #313131",
"-	c #2D2D2D",
";	c #272727",
">	c #1D1D1D",
",	c #1C1C1C",
"'	c #242424",
")	c #2A2A2A",
"!	c #292929",
"~	c #303030",
"{	c #343434",
"]	c #212121",
"^	c #191919",
"/	c #181818",
"(	c #202020",
"_	c #1F1F1F",
":	c #232323",
"<	c #2E2E2E",
"[	c #323232",
"}	c #262626",
"|	c #1A1A1A",
"1	c #161616",
"2	c #020202",
"3	c #131313",
"4	c #151515",
"5	c #121212",
"6	c #3B3B3B",
"7	c #101010",
"8	c #0E0E0E",
"9	c #0B0B0B",
"0	c #0F0F0F",
"a	c #0C0C0C",
"b	c #090909",
"c	c #080808",
"d	c #000000",
"e	c #050505",
"f	c #040404",
"g	c #484848",
"h	c #070707",
"i	c #010101",
"               ..+@#$$%               ",
"            .&*=--;>,')!!~            ",
"          .%{=-$)]^/,(,>_:!<          ",
"        .%[<$!};}_//|/1/^,_>,2        ",
"       &[-)!}':]]_|/33341145512       ",
"      6=);;':](_>,15775535898712      ",
"     6=)!}]((_>,|/7000700a9998712     ",
"    6=)!'(>>>,||^4088008bccb99800d    ",
"   6=)!'(>>>|^^//40aaa9bccccb99befg   ",
"   {);'(>>,^/1//148aa9chhccccch2d2d   ",
"  %<;:(>>,^/111445a99chhhhccceiiddig  ",
"  {)}]>,,^/1114337acheehhhhheidddd2d  ",
" #<;:(>,^/11143550bheeeehhhf2iddddddd ",
" {$}]>,^1111435578ceeeeeeefiddddddddd ",
" =}]_>|/111435577ahfeeeeef2iddddddddd ",
"#-}]_,^/443355770ahffeeffidddddddddddd",
"[;}(,|/1443557700ahfffefiidddddddddddd",
"=:|^/14557788a999c2iiidddddddddddddddd",
"~|70509ccchheffffidddddddddddddddddddd",
"}7988bheeef2iddddddddddddddddddddddddd",
"|800bhhheefidddddddddddddddddddddddddd",
"1338bchhffiddddddddddddddddddddddddddd",
"(^8bcchhfidddddddddddddddddddddddddddd",
" 109bchfidddddddddddddddddddddddddddd ",
" 589bceiddddddddddddddddddddddddddddd ",
" /7abh2dddddddddddddddddddddddddddddd ",
"  58cidddddddddddddddddddddddddddddd  ",
"  192ddddddddddddddddddddddddddddddd  ",
"   eddddddddddddddddddddddddddddddd   ",
"   (ddddddddddddddddddddddddddddddd   ",
"    (ddddddddddddddddddddddddddddd    ",
"     (ddddddddddddddddddddddddddd     ",
"      (ddddddddddddddddddddddddd      ",
"       addddddddddddddddddddddd       ",
"        dhdddddddddddddddddddd        ",
"          didddddddddddddddd          ",
"            dddddddddddddd            ",
"               dddddddd               "};
