/* XPM */
static char * s002_xpm[] = {
"50 50 3 1",
" 	c #618565956185",
".	c #000000000000",
"X	c #8E3859650000",
"                                                  ",
" .XXXXXXXXXXXXXXXXXXXXXXXXXXXXXXXXXXXXXXXXXXXXXX. ",
"  .XXXXXXXXXXXXXXXXXXXXXXXXXXXXXXXXXXXXXXXXXXXX. .",
" X .XXXXXXXXXXXXXXXXXXXXXXXXXXXXXXXXXXXXXXXXXX. X.",
" XX .XXXXXXXXXXXXXXXXXXXXXXXXXXXXXXXXXXXXXXXX. XX.",
" XXX .XXXXXXXXXXXXXXXXXXXXXXXXXXXXXXXXXXXXXX. XXX.",
" XXXX .XXXXXXXXXXXXXXXXXXXXXXXXXXXXXXXXXXXX. XXXX.",
" XXXXX .XXXXXXXXXXXXXXXXXXXXXXXXXXXXXXXXXX. XXXXX.",
" XXXXXX .XXXXXXXXXXXXXXXXXXXXXXXXXXXXXXXX. XXXXXX.",
" XXXXXXX .XXXXXXXXXXXXXXXXXXXXXXXXXXXXXX. XXXXXXX.",
" XXXXXXXX .XXXXXXXXXXXXXXXXXXXXXXXXXXXX. XXXXXXXX.",
" XXXXXXXXX .XXXXXXXXXXXXXXXXXXXXXXXXXX. XXXXXXXXX.",
" XXXXXXXXXX .XXXXXXXXXXXXXXXXXXXXXXXX. XXXXXXXXXX.",
" XXXXXXXXXXX .XXXXXXXXXXXXXXXXXXXXXX. XXXXXXXXXXX.",
" XXXXXXXXXXXX .XXXXXXXXXXXXXXXXXXXX. XXXXXXXXXXXX.",
" XXXXXXXXXXXXX .XXXXXXXXXXXXXXXXXX. XXXXXXXXXXXXX.",
" XXXXXXXXXXXXXX .XXXXXXXXXXXXXXXX. XXXXXXXXXXXXXX.",
" XXXXXXXXXXXXXXX .XXXXXXXXXXXXXX. XXXXXXXXXXXXXXX.",
" XXXXXXXXXXXXXXXX .XXXXXXXXXXXX. XXXXXXXXXXXXXXXX.",
" XXXXXXXXXXXXXXXXX .XXXXXXXXXX. XXXXXXXXXXXXXXXXX.",
" XXXXXXXXXXXXXXXXXX .XXXXXXXX. XXXXXXXXXXXXXXXXXX.",
" XXXXXXXXXXXXXXXXXXX .XXXXXX. XXXXXXXXXXXXXXXXXXX.",
" XXXXXXXXXXXXXXXXXXXX .XXXX. XXXXXXXXXXXXXXXXXXXX.",
" XXXXXXXXXXXXXXXXXXXXX .XX. XXXXXXXXXXXXXXXXXXXXX.",
" XXXXXXXXXXXXXXXXXXXXXX .. XXXXXXXXXXXXXXXXXXXXXX.",
" XXXXXXXXXXXXXXXXXXXXXXX. XXXXXXXXXXXXXXXXXXXXXXX.",
" XXXXXXXXXXXXXXXXXXXXXX.  .XXXXXXXXXXXXXXXXXXXXXX.",
" XXXXXXXXXXXXXXXXXXXXX. XX .XXXXXXXXXXXXXXXXXXXXX.",
" XXXXXXXXXXXXXXXXXXXX. XXXX .XXXXXXXXXXXXXXXXXXXX.",
" XXXXXXXXXXXXXXXXXXX. XXXXXX .XXXXXXXXXXXXXXXXXXX.",
" XXXXXXXXXXXXXXXXXX. XXXXXXXX .XXXXXXXXXXXXXXXXXX.",
" XXXXXXXXXXXXXXXXX. XXXXXXXXXX .XXXXXXXXXXXXXXXXX.",
" XXXXXXXXXXXXXXXX. XXXXXXXXXXXX .XXXXXXXXXXXXXXXX.",
" XXXXXXXXXXXXXXX. XXXXXXXXXXXXXX .XXXXXXXXXXXXXXX.",
" XXXXXXXXXXXXXX. XXXXXXXXXXXXXXXX .XXXXXXXXXXXXXX.",
" XXXXXXXXXXXXX. XXXXXXXXXXXXXXXXXX .XXXXXXXXXXXXX.",
" XXXXXXXXXXXX. XXXXXXXXXXXXXXXXXXXX .XXXXXXXXXXXX.",
" XXXXXXXXXXX. XXXXXXXXXXXXXXXXXXXXXX .XXXXXXXXXXX.",
" XXXXXXXXXX. XXXXXXXXXXXXXXXXXXXXXXXX .XXXXXXXXXX.",
" XXXXXXXXX. XXXXXXXXXXXXXXXXXXXXXXXXXX .XXXXXXXXX.",
" XXXXXXXX. XXXXXXXXXXXXXXXXXXXXXXXXXXXX .XXXXXXXX.",
" XXXXXXX. XXXXXXXXXXXXXXXXXXXXXXXXXXXXXX .XXXXXXX.",
" XXXXXX. XXXXXXXXXXXXXXXXXXXXXXXXXXXXXXXX .XXXXXX.",
" XXXXX. XXXXXXXXXXXXXXXXXXXXXXXXXXXXXXXXXX .XXXXX.",
" XXXX. XXXXXXXXXXXXXXXXXXXXXXXXXXXXXXXXXXXX .XXXX.",
" XXX. XXXXXXXXXXXXXXXXXXXXXXXXXXXXXXXXXXXXXX .XXX.",
" XX. XXXXXXXXXXXXXXXXXXXXXXXXXXXXXXXXXXXXXXXX .XX.",
" X. XXXXXXXXXXXXXXXXXXXXXXXXXXXXXXXXXXXXXXXXXX .X.",
" . XXXXXXXXXXXXXXXXXXXXXXXXXXXXXXXXXXXXXXXXXXXX ..",
"  ..............................................  "};
