/* XPM */
static char * s004_xpm[] = {
"50 50 3 1",
" 	c #618565956185",
".	c #8E3859650000",
"X	c #000000000000",
"                                                  ",
" .......................X .......................X",
" .......................X .......................X",
" .......................X .......................X",
" .......................X .......................X",
" .......................X .......................X",
" .......................X .......................X",
" .......................X .......................X",
" .......................X .......................X",
" .......................X .......................X",
" .......................X .......................X",
" .......................X .......................X",
" .......................X .......................X",
" .......................X .......................X",
" .......................X .......................X",
" .......................X .......................X",
" .......................X .......................X",
" .......................X .......................X",
" .......................X .......................X",
" .......................X .......................X",
" .......................X .......................X",
" .......................X .......................X",
" .......................X .......................X",
" .......................X .......................X",
" XXXXXXXXXXXXXXXXXXXXXXXX XXXXXXXXXXXXXXXXXXXXXXXX",
"                                                  ",
" .......................X .......................X",
" .......................X .......................X",
" .......................X .......................X",
" .......................X .......................X",
" .......................X .......................X",
" .......................X .......................X",
" .......................X .......................X",
" .......................X .......................X",
" .......................X .......................X",
" .......................X .......................X",
" .......................X .......................X",
" .......................X .......................X",
" .......................X .......................X",
" .......................X .......................X",
" .......................X .......................X",
" .......................X .......................X",
" .......................X .......................X",
" .......................X .......................X",
" .......................X .......................X",
" .......................X .......................X",
" .......................X .......................X",
" .......................X .......................X",
" .......................X .......................X",
" XXXXXXXXXXXXXXXXXXXXXXXX XXXXXXXXXXXXXXXXXXXXXXXX"};
