/* XPM */
static char * p001_xpm[] = {
"30 30 73 1",
" 	c None",
".	c #FFFFFF",
"+	c #414141",
"@	c #373737",
"#	c #FCFCFC",
"$	c #272727",
"%	c #1D1D1D",
"&	c #FEFEFE",
"*	c #191919",
"=	c #181818",
"-	c #F7F7F7",
";	c #E6E6E6",
">	c #7F7F7F",
",	c #1A1A1A",
"'	c #161616",
")	c #F3F3F3",
"!	c #0F0F0F",
"~	c #DFDFDF",
"{	c #FDFDFD",
"]	c #090909",
"^	c #FAFAFA",
"/	c #0B0B0B",
"(	c #080808",
"_	c #F4F4F4",
":	c #E9E9E9",
"<	c #0C0C0C",
"[	c #D9D9D9",
"}	c #0E0E0E",
"|	c #F8F8F8",
"1	c #F6F6F6",
"2	c #FBFBFB",
"3	c #EFEFEF",
"4	c #070707",
"5	c #050505",
"6	c #EDEDED",
"7	c #ECECEC",
"8	c #020202",
"9	c #000000",
"0	c #F0F0F0",
"a	c #F1F1F1",
"b	c #E5E5E5",
"c	c #303030",
"d	c #101010",
"e	c #121212",
"f	c #010101",
"g	c #262626",
"h	c #040404",
"i	c #E7E7E7",
"j	c #DCDCDC",
"k	c #CECECE",
"l	c #EAEAEA",
"m	c #E3E3E3",
"n	c #D8D8D8",
"o	c #CDCDCD",
"p	c #E2E2E2",
"q	c #DEDEDE",
"r	c #D2D2D2",
"s	c #C8C8C8",
"t	c #E0E0E0",
"u	c #D4D4D4",
"v	c #CBCBCB",
"w	c #D5D5D5",
"x	c #C7C7C7",
"y	c #C5C5C5",
"z	c #DBDBDB",
"A	c #B2B2B2",
"B	c #C4C4C4",
"C	c #D6D6D6",
"D	c #C0C0C0",
"E	c #D1D1D1",
"F	c #CFCFCF",
"G	c #C3C3C3",
"H	c #BDBDBD",
"           ...+@...           ",
"        ###...$%......        ",
"       ##&....*=......-       ",
"     ###&.....==.......;>     ",
"    ##&.......,'.........)    ",
"   ##&........'!..........~   ",
"   #{.........!]..........^   ",
"  #{........../(.........{_:  ",
" ##&..........</........&-))[ ",
" #{...........}/.......{|1-^- ",
" {............!/......&^||&23 ",
"#{............/4.....&2|^{{_;~",
"{{............]5....&2|^&2167:",
"{{............89...&222{{|00ab",
"c,d!e!(54]]45f9999999999999999",
"gd/}<48fh5hf999999999999999999",
"{{............99-)a00036:i;bjk",
"{{......22&&&2990677l:i;bm~[no",
"{&.....22&&{2^9937l:::immpq[rs",
" {....2^&.&2|-996l::::;mp~j[k ",
" #...^^{&{2|-_997:i:i;mptj[uv ",
" {..|-{&&^-1_)996i;;bmmpq[wkx ",
"  .)12&&^-1aa)996;bmppp~jnry  ",
"   .1&{|1)00a_99lbmt~~qznwv   ",
"   A2^1_a660__99mpptqznnwkB   ",
"    .036l:6aa399tqqqzCwroB    ",
"     {mpp:00lb99t[n[CukxD     ",
"       Eji7;tm99qwurFoB       ",
"        -pjwzm99rrkxGD        ",
"           yuu99HDD           "};
