/* XPM */
static char * p001_xpm[] = {
"22 22 65 1",
" 	c None",
".	c #FFFFFF",
"+	c #373737",
"@	c #2A2A2A",
"#	c #1A1A1A",
"$	c #181818",
"%	c #161616",
"&	c #F8F8F8",
"*	c #848484",
"=	c #191919",
"-	c #151515",
";	c #F3F3F3",
">	c #121212",
",	c #DFDFDF",
"'	c #131313",
")	c #0F0F0F",
"!	c #FAFAFA",
"~	c #0E0E0E",
"{	c #FDFDFD",
"]	c #F4F4F4",
"^	c #E9E9E9",
"/	c #090909",
"(	c #FEFEFE",
"_	c #F7F7F7",
":	c #F1F1F1",
"<	c #EDEDED",
"[	c #070707",
"}	c #F6F6F6",
"|	c #EFEFEF",
"1	c #EAEAEA",
"2	c #040404",
"3	c #000000",
"4	c #F0F0F0",
"5	c #262626",
"6	c #0C0C0C",
"7	c #0B0B0B",
"8	c #080808",
"9	c #010101",
"0	c #E7E7E7",
"a	c #E6E6E6",
"b	c #E3E3E3",
"c	c #E0E0E0",
"d	c #CECECE",
"e	c #FBFBFB",
"f	c #E2E2E2",
"g	c #DCDCDC",
"h	c #D8D8D8",
"i	c #D2D2D2",
"j	c #C8C8C8",
"k	c #E5E5E5",
"l	c #DEDEDE",
"m	c #D9D9D9",
"n	c #D5D5D5",
"o	c #CBCBCB",
"p	c #D1D1D1",
"q	c #C5C5C5",
"r	c #DBDBDB",
"s	c #B7B7B7",
"t	c #ECECEC",
"u	c #C4C4C4",
"v	c #D6D6D6",
"w	c #CDCDCD",
"x	c #C0C0C0",
"y	c #C7C7C7",
"z	c #C1C1C1",
"        ..+@..        ",
"      ....#$....      ",
"    ......$%....&*    ",
"   .......=-......;   ",
"  ........->.......,  ",
"  ........').......!  ",
" .........>~......{]^ ",
" .........~/.....(_:< ",
"........../[....{&};|1",
"..........23...(!_}]}4",
"5)6)677823333333333333",
"=///8[2933333333333333",
"..........33:|<^0abc,d",
"...((..({e33<0abf,ghij",
" .!e...(!_331kbbflmno ",
" .e..((!_}33kfff,ghpq ",
"  .{.{&};433b,,lrhno  ",
"  se!}]:<t33fgrhhndu  ",
"   .4|<1^^33lmvniwu   ",
"    {bfcba33gnpwqx    ",
"      pvgk33mdyx      ",
"        im33zx        "};
