/* XPM */
static char * p002_xpm[] = {
"22 22 45 1",
" 	c None",
".	c #FFFFFF",
"+	c #F8F8F8",
"@	c #848484",
"#	c #F3F3F3",
"$	c #DFDFDF",
"%	c #FAFAFA",
"&	c #FDFDFD",
"*	c #F4F4F4",
"=	c #E9E9E9",
"-	c #FEFEFE",
";	c #F7F7F7",
">	c #F1F1F1",
",	c #EDEDED",
"'	c #F6F6F6",
")	c #EFEFEF",
"!	c #EAEAEA",
"~	c #F0F0F0",
"{	c #FBFBFB",
"]	c #E6E6E6",
"^	c #D9D9D9",
"/	c #E7E7E7",
"(	c #E3E3E3",
"_	c #E0E0E0",
":	c #CECECE",
"<	c #E2E2E2",
"[	c #DCDCDC",
"}	c #D8D8D8",
"|	c #D2D2D2",
"1	c #C8C8C8",
"2	c #E5E5E5",
"3	c #DEDEDE",
"4	c #D5D5D5",
"5	c #CBCBCB",
"6	c #D1D1D1",
"7	c #C5C5C5",
"8	c #ECECEC",
"9	c #DBDBDB",
"0	c #B7B7B7",
"a	c #C4C4C4",
"b	c #D6D6D6",
"c	c #CDCDCD",
"d	c #C0C0C0",
"e	c #C7C7C7",
"f	c #C1C1C1",
"        ......        ",
"      ..........      ",
"    ............+@    ",
"   ...............#   ",
"  .................$  ",
"  .................%  ",
" .................&*= ",
" ................-;>, ",
"................&+'#)!",
"...............-%;'*'~",
"..............-{+;''']",
".............{;**#~#~^",
"...........{>),=/](_$:",
"...--..-&{+',/](<$[}|1",
" .%{...-%;'>!2((<3^45 ",
" .{..--%;'>,2<<<$[}67 ",
"  .&.&+'#~~8($$39}45  ",
"  0{%'*>,8,!<[9}}4:a  ",
"   .~),!==!]3^b4|ca   ",
"    &(<_(]=/[46c7d    ",
"      6b[2/2^:ed      ",
"        |^41fd        "};
