/* XPM */
static char * p004_xpm[] = {
"22 22 44 1",
" 	c None",
".	c #3F3F3F",
"+	c #3E3E3E",
"@	c #373737",
"#	c #2A2A2A",
"$	c #262626",
"%	c #2D2D2D",
"&	c #383838",
"*	c #313131",
"=	c #1A1A1A",
"-	c #181818",
";	c #232323",
">	c #292929",
",	c #2E2E2E",
"'	c #3A3A3A",
")	c #323232",
"!	c #161616",
"~	c #191919",
"{	c #1C1C1C",
"]	c #1F1F1F",
"^	c #1D1D1D",
"/	c #020202",
"(	c #3B3B3B",
"_	c #212121",
":	c #151515",
"<	c #121212",
"[	c #101010",
"}	c #0F0F0F",
"|	c #000000",
"1	c #272727",
"2	c #242424",
"3	c #131313",
"4	c #0E0E0E",
"5	c #0B0B0B",
"6	c #090909",
"7	c #050505",
"8	c #040404",
"9	c #484848",
"0	c #343434",
"a	c #202020",
"b	c #0C0C0C",
"c	c #070707",
"d	c #080808",
"e	c #010101",
"        .+@#$%        ",
"      .&*$=-=;>,      ",
"    .'),#;-!~{]^{/    ",
"   ()%#>$_~:!!:<[}|   ",
"  (*#112;^:<3<456789  ",
"  0#12_aa{3}}b6c/|/|  ",
" ',1;a^^^=<46d7ee||8| ",
" 0#$_^{{=:46d7e|||87| ",
"@%1;a^{~-<6c8/e||ee|||",
"*a]{~-!<[48|||||||||||",
"$}b}b55d8|||||||||||||",
"~666dc8e||||||||||||||",
"}656d7e|||||||||||||||",
":[b6c/||||||||||||||||",
" <4de|||||||||||||||| ",
" !5/||||||||||||||||| ",
"  7|||||||||||||||||  ",
"  a|||||||||||||||||  ",
"   b|||||||||||||||   ",
"    |c||||||||||||    ",
"      ||||||||||      ",
"        ||||||        "};
