/* XPM */
static char * s002_xpm[] = {
"30 30 3 1",
" 	c #618565956185",
".	c #000000000000",
"X	c #8E3859650000",
"                              ",
" .XXXXXXXXXXXXXXXXXXXXXXXXXX. ",
"  .XXXXXXXXXXXXXXXXXXXXXXXX. .",
" X .XXXXXXXXXXXXXXXXXXXXXX. X.",
" XX .XXXXXXXXXXXXXXXXXXXX. XX.",
" XXX .XXXXXXXXXXXXXXXXXX. XXX.",
" XXXX .XXXXXXXXXXXXXXXX. XXXX.",
" XXXXX .XXXXXXXXXXXXXX. XXXXX.",
" XXXXXX .XXXXXXXXXXXX. XXXXXX.",
" XXXXXXX .XXXXXXXXXX. XXXXXXX.",
" XXXXXXXX .XXXXXXXX. XXXXXXXX.",
" XXXXXXXXX .XXXXXX. XXXXXXXXX.",
" XXXXXXXXXX .XXXX. XXXXXXXXXX.",
" XXXXXXXXXXX .XX. XXXXXXXXXXX.",
" XXXXXXXXXXXX .. XXXXXXXXXXXX.",
" XXXXXXXXXXXXX. XXXXXXXXXXXXX.",
" XXXXXXXXXXXX.  .XXXXXXXXXXXX.",
" XXXXXXXXXXX. XX .XXXXXXXXXXX.",
" XXXXXXXXXX. XXXX .XXXXXXXXXX.",
" XXXXXXXXX. XXXXXX .XXXXXXXXX.",
" XXXXXXXX. XXXXXXXX .XXXXXXXX.",
" XXXXXXX. XXXXXXXXXX .XXXXXXX.",
" XXXXXX. XXXXXXXXXXXX .XXXXXX.",
" XXXXX. XXXXXXXXXXXXXX .XXXXX.",
" XXXX. XXXXXXXXXXXXXXXX .XXXX.",
" XXX. XXXXXXXXXXXXXXXXXX .XXX.",
" XX. XXXXXXXXXXXXXXXXXXXX .XX.",
" X. XXXXXXXXXXXXXXXXXXXXXX .X.",
" . XXXXXXXXXXXXXXXXXXXXXXXX ..",
"  ..........................  "};
