/* XPM */
static char * p001_xpm[] = {
"14 14 51 1",
" 	c None",
".	c #FFFFFF",
"+	c #292929",
"@	c #262626",
"#	c #1C1C1C",
"$	c #1A1A1A",
"%	c #1D1D1D",
"&	c #151515",
"*	c #F3F3F3",
"=	c #161616",
"-	c #0E0E0E",
";	c #DFDFDF",
">	c #101010",
",	c #090909",
"'	c #FAFAFA",
")	c #040404",
"!	c #000000",
"~	c #FDFDFD",
"{	c #F4F4F4",
"]	c #ECECEC",
"^	c #191919",
"/	c #0F0F0F",
"(	c #121212",
"_	c #0C0C0C",
":	c #080808",
"<	c #010101",
"[	c #F0F0F0",
"}	c #E6E6E6",
"|	c #E3E3E3",
"1	c #DCDCDC",
"2	c #D2D2D2",
"3	c #FBFBFB",
"4	c #F8F8F8",
"5	c #DBDBDB",
"6	c #D8D8D8",
"7	c #D5D5D5",
"8	c #CBCBCB",
"9	c #F6F6F6",
"0	c #DEDEDE",
"a	c #CECECE",
"b	c #C4C4C4",
"c	c #EFEFEF",
"d	c #EDEDED",
"e	c #D9D9D9",
"f	c #CDCDCD",
"g	c #E2E2E2",
"h	c #D6D6D6",
"i	c #C7C7C7",
"j	c #C0C0C0",
"k	c #D4D4D4",
"l	c #CACACA",
"     .+@.     ",
"   ...#$...   ",
"  ....%&...*  ",
" .....=-....; ",
" .....>,....' ",
"......)!...~{]",
"^/(_:!!!!!!!!!",
"/,:<!!!!!!!!!!",
"......!![}|;12",
" .'3~4!!|5678 ",
" .''9{!!067ab ",
"  .[cd!!e2fb  ",
"   ~|g!!hij   ",
"     k!!l     "};
