/* XPM */
static char * p002_xpm[] = {
"14 14 39 1",
" 	c None",
".	c #FFFFFF",
"+	c #F3F3F3",
"@	c #DFDFDF",
"#	c #FAFAFA",
"$	c #FDFDFD",
"%	c #F4F4F4",
"&	c #ECECEC",
"*	c #FEFEFE",
"=	c #F7F7F7",
"-	c #F6F6F6",
";	c #F0F0F0",
">	c #EDEDED",
",	c #E6E6E6",
"'	c #FBFBFB",
")	c #E3E3E3",
"!	c #DCDCDC",
"~	c #D2D2D2",
"{	c #F8F8F8",
"]	c #EFEFEF",
"^	c #DBDBDB",
"/	c #D8D8D8",
"(	c #D5D5D5",
"_	c #CBCBCB",
":	c #F1F1F1",
"<	c #E9E9E9",
"[	c #DEDEDE",
"}	c #CECECE",
"|	c #C4C4C4",
"1	c #EAEAEA",
"2	c #E2E2E2",
"3	c #D9D9D9",
"4	c #CDCDCD",
"5	c #E5E5E5",
"6	c #D6D6D6",
"7	c #C7C7C7",
"8	c #C0C0C0",
"9	c #D4D4D4",
"0	c #CACACA",
"     ....     ",
"   ........   ",
"  .........+  ",
" ...........@ ",
" ...........# ",
"...........$%&",
"..........*=-;",
".........=+>;,",
".......';,)@!~",
" .#'${-])^/(_ ",
" .##-%:<[/(}| ",
"  .;]>123~4|  ",
"   $)25)678   ",
"     9360     "};
