/* XPM */
static char * p004_xpm[] = {
"14 14 39 1",
" 	c None",
".	c #353535",
"+	c #292929",
"@	c #262626",
"#	c #2B2B2B",
"$	c #3F3F3F",
"%	c #383838",
"&	c #1C1C1C",
"*	c #1A1A1A",
"=	c #1D1D1D",
"-	c #020202",
";	c #3B3B3B",
">	c #323232",
",	c #2D2D2D",
"'	c #151515",
")	c #121212",
"!	c #101010",
"~	c #0F0F0F",
"{	c #000000",
"]	c #313131",
"^	c #2A2A2A",
"/	c #272727",
"(	c #212121",
"_	c #161616",
":	c #0E0E0E",
"<	c #0B0B0B",
"[	c #090909",
"}	c #050505",
"|	c #343434",
"1	c #242424",
"2	c #070707",
"3	c #040404",
"4	c #232323",
"5	c #202020",
"6	c #191919",
"7	c #0C0C0C",
"8	c #080808",
"9	c #010101",
"0	c #131313",
"     .+@#     ",
"   $%+&*=&-   ",
"  ;>,@=')!~{  ",
" ;]^/(_:<[}}{ ",
" |^/1&![2-3}{ ",
",45&6~3{{{{{{{",
"6~)78{{{{{{{{{",
"~[89{{{{{{{{{{",
"0<-{{{{{{{{{{{",
" }{{{{{{{{{{{ ",
" 5{{{{{{{{{{{ ",
"  7{{{{{{{{{  ",
"   {{{{{{{{   ",
"     {{{{     "};
