/* XPM */
static char * s002_xpm[] = {
"20 20 3 1",
" 	c #618565956185",
".	c #000000000000",
"X	c #8E3859650000",
"                    ",
" .XXXXXXXXXXXXXXXX. ",
"  .XXXXXXXXXXXXXX. .",
" X .XXXXXXXXXXXX. X.",
" XX .XXXXXXXXXX. XX.",
" XXX .XXXXXXXX. XXX.",
" XXXX .XXXXXX. XXXX.",
" XXXXX .XXXX. XXXXX.",
" XXXXXX .XX. XXXXXX.",
" XXXXXXX .. XXXXXXX.",
" XXXXXXXX. XXXXXXXX.",
" XXXXXXX.  .XXXXXXX.",
" XXXXXX. XX .XXXXXX.",
" XXXXX. XXXX .XXXXX.",
" XXXX. XXXXXX .XXXX.",
" XXX. XXXXXXXX .XXX.",
" XX. XXXXXXXXXX .XX.",
" X. XXXXXXXXXXXX .X.",
" . XXXXXXXXXXXXXX ..",
"  ................  "};
