/* XPM */
static char * s008_xpm[] = {
"20 20 3 1",
" 	c #618565956185",
".	c #000000000000",
"X	c #8E3859650000",
"                    ",
" .X.X.X.X.X.X.X.X.X.",
" XXXXXXXXXXXXXXXXXX.",
" .X.X.X.X.X.X.X.X.X.",
" XXXXXXXXXXXXXXXXXX.",
" .X.X.X.X.X.X.X.X.X.",
" XXXXXXXXXXXXXXXXXX.",
" .X.X.X.X.X.X.X.X.X.",
" XXXXXXXXXXXXXXXXXX.",
" .X.X.X.X.X.X.X.X.X.",
" XXXXXXXXXXXXXXXXXX.",
" .X.X.X.X.X.X.X.X.X.",
" XXXXXXXXXXXXXXXXXX.",
" .X.X.X.X.X.X.X.X.X.",
" XXXXXXXXXXXXXXXXXX.",
" .X.X.X.X.X.X.X.X.X.",
" XXXXXXXXXXXXXXXXXX.",
" .X.X.X.X.X.X.X.X.X.",
" XXXXXXXXXXXXXXXXXX.",
" ..................."};
