/* XPM */
static char * p002_xpm[] = {
"30 30 50 1",
" 	c None",
".	c #FFFFFF",
"+	c #FCFCFC",
"@	c #FEFEFE",
"#	c #F7F7F7",
"$	c #E6E6E6",
"%	c #7F7F7F",
"&	c #F3F3F3",
"*	c #DFDFDF",
"=	c #FDFDFD",
"-	c #FAFAFA",
";	c #F4F4F4",
">	c #E9E9E9",
",	c #D9D9D9",
"'	c #F8F8F8",
")	c #F6F6F6",
"!	c #FBFBFB",
"~	c #EFEFEF",
"{	c #EDEDED",
"]	c #ECECEC",
"^	c #F0F0F0",
"/	c #F1F1F1",
"(	c #E5E5E5",
"_	c #CFCFCF",
":	c #E7E7E7",
"<	c #DCDCDC",
"[	c #CECECE",
"}	c #EAEAEA",
"|	c #E3E3E3",
"1	c #D8D8D8",
"2	c #CDCDCD",
"3	c #E2E2E2",
"4	c #DEDEDE",
"5	c #D2D2D2",
"6	c #C8C8C8",
"7	c #E0E0E0",
"8	c #D4D4D4",
"9	c #CBCBCB",
"0	c #D5D5D5",
"a	c #C7C7C7",
"b	c #C5C5C5",
"c	c #DBDBDB",
"d	c #B2B2B2",
"e	c #C4C4C4",
"f	c #D6D6D6",
"g	c #C0C0C0",
"h	c #D1D1D1",
"i	c #C3C3C3",
"j	c #BEBEBE",
"k	c #BDBDBD",
"           ........           ",
"        +++...........        ",
"       ++@............#       ",
"     +++@..............$%     ",
"    ++@..................&    ",
"   ++@....................*   ",
"   +=.....................-   ",
"  +=.....................=;>  ",
" ++@....................@#&&, ",
" +=....................=')#-# ",
" =....................@-''@!~ ",
"+=...................@!'-==;$*",
"==..................@!'-@!){]>",
"==.................@!!!=='^^/(",
"==................@!-!@='&/;~,",
"==..............@-'))'-#^{^~(_",
"==.............=#&/^^^~{>:$(<[",
"==......!!@@@!-)^{]]}>:$(|*,12",
"=@.....!!@@=!-';~]}>>>:||34,56",
" =....!-@.@!'#;^{}>>>>$|3*<,[ ",
" +...--=@=!'#;;/]>:>:$|37<,89 ",
" =..'#=@@-#);&;&{:$$(||34,0[a ",
"  .&)!@@-#)//&#;{$(|333*<15b  ",
"   .)@=')&^^/;)^}(|7**4c109   ",
"   d!-);/{{^;;^>|3374c110[e   ",
"    .^~{}>{//~>(7444cf052e    ",
"     =|33>^^}(::7,1,f8[ag     ",
"       h<:]$7|:$4085_2e       ",
"        #3<0c|3155[aig        ",
"           b886jkgg           "};
