/* XPM */
static char * p004_xpm[] = {
"30 30 48 1",
" 	c None",
".	c #3F3F3F",
"+	c #424242",
"@	c #414141",
"#	c #373737",
"$	c #2B2B2B",
"%	c #3A3A3A",
"&	c #3C3C3C",
"*	c #383838",
"=	c #313131",
"-	c #2D2D2D",
";	c #272727",
">	c #1D1D1D",
",	c #1C1C1C",
"'	c #242424",
")	c #2A2A2A",
"!	c #232323",
"~	c #080808",
"{	c #3B3B3B",
"]	c #323232",
"^	c #303030",
"/	c #212121",
"(	c #191919",
"_	c #181818",
":	c #1F1F1F",
"<	c #131313",
"[	c #2E2E2E",
"}	c #292929",
"|	c #262626",
"1	c #1A1A1A",
"2	c #151515",
"3	c #0F0F0F",
"4	c #161616",
"5	c #020202",
"6	c #101010",
"7	c #0E0E0E",
"8	c #121212",
"9	c #000000",
"0	c #0B0B0B",
"a	c #090909",
"b	c #050505",
"c	c #040404",
"d	c #4D4D4D",
"e	c #343434",
"f	c #202020",
"g	c #0C0C0C",
"h	c #070707",
"i	c #010101",
"           ..+@#$$%           ",
"        .&*=--;>,')!>~        ",
"       {]^-$)/(_,:(<_![       ",
"     .*=$}|;|:__12334>>,5     ",
"    {]-)}'///:146778428639    ",
"   {=);;'/:>>,430038870abcd   ",
"   e);'/ff:,123a0733gah5ia9   ",
"  %-;!f>>>,1(80~g77a~biicag9  ",
" *=)|/>,,1((_8g0g0a~bii5~h999 ",
" e$|!:>,(_4_4<700~hc5i5bb9999 ",
" =|!f>,(44442830~hci9ibc99999 ",
"#-|/>,,_4442<60hbc5iicc9999999",
"];|f,1(_42<<83abciiicc99999999",
"=!1(_4863337g~5999999999999999",
"^16383~bhaahbi9999999999999999",
"|607gh5icbci999999999999999999",
"1733h55ccci9999999999999999999",
"4<8acibhci99999999999999999999",
"f(055bhci999999999999999999999",
" 6cihhbi999999999999999999999 ",
" ~b~ah59999999999999999999999 ",
" |gg~i99999999999999999999999 ",
"  40599999999999999999999999  ",
"   b99999999999999999999999   ",
"   f99999999999999999999999   ",
"    g999999999999999999999    ",
"     ((999999999999999999     ",
"       ~999999999999999       ",
"        99999999999999        ",
"           99999999           "};
