/* XPM */
static char * s002_xpm[] = {
"40 40 3 1",
" 	c #618565956185",
".	c #000000000000",
"X	c #8E3859650000",
"                                        ",
" .XXXXXXXXXXXXXXXXXXXXXXXXXXXXXXXXXXXX. ",
"  .XXXXXXXXXXXXXXXXXXXXXXXXXXXXXXXXXX. .",
" X .XXXXXXXXXXXXXXXXXXXXXXXXXXXXXXXX. X.",
" XX .XXXXXXXXXXXXXXXXXXXXXXXXXXXXXX. XX.",
" XXX .XXXXXXXXXXXXXXXXXXXXXXXXXXXX. XXX.",
" XXXX .XXXXXXXXXXXXXXXXXXXXXXXXXX. XXXX.",
" XXXXX .XXXXXXXXXXXXXXXXXXXXXXXX. XXXXX.",
" XXXXXX .XXXXXXXXXXXXXXXXXXXXXX. XXXXXX.",
" XXXXXXX .XXXXXXXXXXXXXXXXXXXX. XXXXXXX.",
" XXXXXXXX .XXXXXXXXXXXXXXXXXX. XXXXXXXX.",
" XXXXXXXXX .XXXXXXXXXXXXXXXX. XXXXXXXXX.",
" XXXXXXXXXX .XXXXXXXXXXXXXX. XXXXXXXXXX.",
" XXXXXXXXXXX .XXXXXXXXXXXX. XXXXXXXXXXX.",
" XXXXXXXXXXXX .XXXXXXXXXX. XXXXXXXXXXXX.",
" XXXXXXXXXXXXX .XXXXXXXX. XXXXXXXXXXXXX.",
" XXXXXXXXXXXXXX .XXXXXX. XXXXXXXXXXXXXX.",
" XXXXXXXXXXXXXXX .XXXX. XXXXXXXXXXXXXXX.",
" XXXXXXXXXXXXXXXX .XX. XXXXXXXXXXXXXXXX.",
" XXXXXXXXXXXXXXXXX .. XXXXXXXXXXXXXXXXX.",
" XXXXXXXXXXXXXXXXXX. XXXXXXXXXXXXXXXXXX.",
" XXXXXXXXXXXXXXXXX.  .XXXXXXXXXXXXXXXXX.",
" XXXXXXXXXXXXXXXX. XX .XXXXXXXXXXXXXXXX.",
" XXXXXXXXXXXXXXX. XXXX .XXXXXXXXXXXXXXX.",
" XXXXXXXXXXXXXX. XXXXXX .XXXXXXXXXXXXXX.",
" XXXXXXXXXXXXX. XXXXXXXX .XXXXXXXXXXXXX.",
" XXXXXXXXXXXX. XXXXXXXXXX .XXXXXXXXXXXX.",
" XXXXXXXXXXX. XXXXXXXXXXXX .XXXXXXXXXXX.",
" XXXXXXXXXX. XXXXXXXXXXXXXX .XXXXXXXXXX.",
" XXXXXXXXX. XXXXXXXXXXXXXXXX .XXXXXXXXX.",
" XXXXXXXX. XXXXXXXXXXXXXXXXXX .XXXXXXXX.",
" XXXXXXX. XXXXXXXXXXXXXXXXXXXX .XXXXXXX.",
" XXXXXX. XXXXXXXXXXXXXXXXXXXXXX .XXXXXX.",
" XXXXX. XXXXXXXXXXXXXXXXXXXXXXXX .XXXXX.",
" XXXX. XXXXXXXXXXXXXXXXXXXXXXXXXX .XXXX.",
" XXX. XXXXXXXXXXXXXXXXXXXXXXXXXXXX .XXX.",
" XX. XXXXXXXXXXXXXXXXXXXXXXXXXXXXXX .XX.",
" X. XXXXXXXXXXXXXXXXXXXXXXXXXXXXXXXX .X.",
" . XXXXXXXXXXXXXXXXXXXXXXXXXXXXXXXXXX ..",
"  ....................................  "};
