/* XPM */
static char * s004_xpm[] = {
"40 40 3 1",
" 	c #618565956185",
".	c #8E3859650000",
"X	c #000000000000",
"                                        ",
" ..................X ..................X",
" ..................X ..................X",
" ..................X ..................X",
" ..................X ..................X",
" ..................X ..................X",
" ..................X ..................X",
" ..................X ..................X",
" ..................X ..................X",
" ..................X ..................X",
" ..................X ..................X",
" ..................X ..................X",
" ..................X ..................X",
" ..................X ..................X",
" ..................X ..................X",
" ..................X ..................X",
" ..................X ..................X",
" ..................X ..................X",
" ..................X ..................X",
" XXXXXXXXXXXXXXXXXXX XXXXXXXXXXXXXXXXXXX",
"                                        ",
" ..................X ..................X",
" ..................X ..................X",
" ..................X ..................X",
" ..................X ..................X",
" ..................X ..................X",
" ..................X ..................X",
" ..................X ..................X",
" ..................X ..................X",
" ..................X ..................X",
" ..................X ..................X",
" ..................X ..................X",
" ..................X ..................X",
" ..................X ..................X",
" ..................X ..................X",
" ..................X ..................X",
" ..................X ..................X",
" ..................X ..................X",
" ..................X ..................X",
" XXXXXXXXXXXXXXXXXXX XXXXXXXXXXXXXXXXXXX"};
