/* XPM */
static char * sq8_xpm[] = {
"40 40 3 1",
" 	c #618565956185",
".	c #000000000000",
"X	c #8E3859650000",
"                                        ",
" .X.X.X.X.X.X.X.X.X.X.X.X.X.X.X.X.X.X.X.",
" XXXXXXXXXXXXXXXXXXXXXXXXXXXXXXXXXXXXXX.",
" .X.X.X.X.X.X.X.X.X.X.X.X.X.X.X.X.X.X.X.",
" XXXXXXXXXXXXXXXXXXXXXXXXXXXXXXXXXXXXXX.",
" .X.X.X.X.X.X.X.X.X.X.X.X.X.X.X.X.X.X.X.",
" XXXXXXXXXXXXXXXXXXXXXXXXXXXXXXXXXXXXXX.",
" .X.X.X.X.X.X.X.X.X.X.X.X.X.X.X.X.X.X.X.",
" XXXXXXXXXXXXXXXXXXXXXXXXXXXXXXXXXXXXXX.",
" .X.X.X.X.X.X.X.X.X.X.X.X.X.X.X.X.X.X.X.",
" XXXXXXXXXXXXXXXXXXXXXXXXXXXXXXXXXXXXXX.",
" .X.X.X.X.X.X.X.X.X.X.X.X.X.X.X.X.X.X.X.",
" XXXXXXXXXXXXXXXXXXXXXXXXXXXXXXXXXXXXXX.",
" .X.X.X.X.X.X.X.X.X.X.X.X.X.X.X.X.X.X.X.",
" XXXXXXXXXXXXXXXXXXXXXXXXXXXXXXXXXXXXXX.",
" .X.X.X.X.X.X.X.X.X.X.X.X.X.X.X.X.X.X.X.",
" XXXXXXXXXXXXXXXXXXXXXXXXXXXXXXXXXXXXXX.",
" .X.X.X.X.X.X.X.X.X.X.X.X.X.X.X.X.X.X.X.",
" XXXXXXXXXXXXXXXXXXXXXXXXXXXXXXXXXXXXXX.",
" .X.X.X.X.X.X.X.X.X.X.X.X.X.X.X.X.X.X.X.",
" XXXXXXXXXXXXXXXXXXXXXXXXXXXXXXXXXXXXXX.",
" .X.X.X.X.X.X.X.X.X.X.X.X.X.X.X.X.X.X.X.",
" XXXXXXXXXXXXXXXXXXXXXXXXXXXXXXXXXXXXXX.",
" .X.X.X.X.X.X.X.X.X.X.X.X.X.X.X.X.X.X.X.",
" XXXXXXXXXXXXXXXXXXXXXXXXXXXXXXXXXXXXXX.",
" .X.X.X.X.X.X.X.X.X.X.X.X.X.X.X.X.X.X.X.",
" XXXXXXXXXXXXXXXXXXXXXXXXXXXXXXXXXXXXXX.",
" .X.X.X.X.X.X.X.X.X.X.X.X.X.X.X.X.X.X.X.",
" XXXXXXXXXXXXXXXXXXXXXXXXXXXXXXXXXXXXXX.",
" .X.X.X.X.X.X.X.X.X.X.X.X.X.X.X.X.X.X.X.",
" XXXXXXXXXXXXXXXXXXXXXXXXXXXXXXXXXXXXXX.",
" .X.X.X.X.X.X.X.X.X.X.X.X.X.X.X.X.X.X.X.",
" XXXXXXXXXXXXXXXXXXXXXXXXXXXXXXXXXXXXXX.",
" .X.X.X.X.X.X.X.X.X.X.X.X.X.X.X.X.X.X.X.",
" XXXXXXXXXXXXXXXXXXXXXXXXXXXXXXXXXXXXXX.",
" .X.X.X.X.X.X.X.X.X.X.X.X.X.X.X.X.X.X.X.",
" XXXXXXXXXXXXXXXXXXXXXXXXXXXXXXXXXXXXXX.",
" .X.X.X.X.X.X.X.X.X.X.X.X.X.X.X.X.X.X.X.",
" XXXXXXXXXXXXXXXXXXXXXXXXXXXXXXXXXXXXXX.",
" ......................................."};
